<svg xmlns="http://www.w3.org/2000/svg" fill="#ffffff" viewBox="0 0 328.38 89.37"><g id="Layer_2" data-name="Layer 2"><g id="Layer_1-2" data-name="Layer 1"><path d="M10.82,73.74l.06,0v-.15c0-.86.44-1.29,1.58-1.29,1,0,1.69.36,1.69,1.39,0,.69-.16,1.27-.16,1.87s.16.91.16,1.51c0,1-.69,1.61-1.88,1.61a1.84,1.84,0,0,1-2-1.63c-.21-1.06-1.1-1.71-3-1.71-1.19,0-2,.6-2,1.49,0,1.06,1.11,1.39,2.87,1.68,4.52.75,6.52,2.43,6.52,5.19,0,3.43-2.85,5.71-6.67,5.71A7.32,7.32,0,0,1,3.3,87.78c0,.87-.66,1.37-1.61,1.37S0,88.65,0,87.59c0-.74.11-1.53.11-2.28S0,84.16,0,83.61c0-1,.87-1.49,2.14-1.49S4,82.84,4.2,84.06,5.49,86,7.26,86c1.58,0,2.56-.67,2.56-1.8s-.45-1.44-4-2.16C3.33,81.47.42,80.42.42,77.1.42,74.06,3,72,6.47,72A5.43,5.43,0,0,1,10.82,73.74Z"/><path d="M22.1,72.59c2,0,4.48-.24,4.83-.24a8.61,8.61,0,0,1,3.32.7,5.23,5.23,0,0,1,1.14,9.09,8.08,8.08,0,0,1-4.91,1.32l-1.9,0c-.61,0-.61.17-.61.46,0,1.44.16,1.89.79,1.89.45,0,.93-.17,1.37-.17a1.61,1.61,0,0,1,1.64,1.61c0,1.08-.84,1.83-2.19,1.83-.95,0-2.77-.24-3.59-.24-1.35,0-2.69.24-4,.24s-2.11-.68-2.11-1.83a1.49,1.49,0,0,1,1.38-1.61c.39,0,.76.17,1.16.17.6,0,.68-.65.68-1.77V77.37c0-1.32-.13-1.75-.68-1.75-.4,0-.77.16-1.16.16a1.51,1.51,0,0,1-1.38-1.6c0-1.23.9-1.83,2.56-1.83C19.64,72.35,20.75,72.59,22.1,72.59Zm3.08,3.31c-.81,0-1.18.17-1.18,1V79.5c0,.68.05.8,1.11.8,2.21,0,3.4-.58,3.4-2.33C28.51,76.55,27.61,75.9,25.18,75.9Z"/><path d="M40.31,72.59c1.61,0,8.21-.24,10-.24,1.61,0,2.06.41,2.06,1.25s-.24,1.63-.24,2.38.24,1.46.24,2.16a1.88,1.88,0,0,1-2.06,1.7,1.79,1.79,0,0,1-2-1.92c0-.6.24-1.15.24-1.7s-.31-.75-1.9-.75H44.27c-1.45,0-1.79.12-1.79,1.15V78c0,.57.08.81.79.81.92,0,1.16-.33,1.16-.81,0-.2,0-.48,0-.68,0-.69.55-1,1.29-1,.95,0,1.48.36,1.48,1.3,0,.74-.21,1.46-.21,2.21,0,1,.21,2.08.21,3s-.42,1.46-1.45,1.46a1.21,1.21,0,0,1-1.35-1.22c0-.19,0-.53,0-.74,0-.48-.29-.58-1.13-.58s-.79.14-.79.91v1.61c0,1.51.55,1.58,2.48,1.58H46.3c1.8,0,2.54-.38,2.54-1.22,0-.53-.19-1.08-.19-1.61a1.91,1.91,0,0,1,2.17-2,1.87,1.87,0,0,1,2,2.06c0,.89-.21,1.9-.21,2.79,0,.67.21,1.29.21,1.89,0,.77-.53,1.28-1.66,1.28-1.56,0-7-.24-10-.24-1.38,0-3,.24-4.15.24-1.71,0-2.64-.6-2.64-1.83a1.48,1.48,0,0,1,1.38-1.61c.39,0,.76.17,1.16.17s.68-.26.68-1.7v-6.7c0-1-.08-1.77-.63-1.77s-.85.16-1.29.16a1.47,1.47,0,0,1-1.3-1.6,1.75,1.75,0,0,1,1.9-1.83C37,72.35,38.83,72.59,40.31,72.59Z"/><path d="M59.85,72.59c1.61,0,8.21-.24,10-.24,1.61,0,2,.41,2,1.25s-.23,1.63-.23,2.38.23,1.46.23,2.16a1.87,1.87,0,0,1-2,1.7,1.79,1.79,0,0,1-2-1.92c0-.6.24-1.15.24-1.7s-.32-.75-1.9-.75H63.81c-1.45,0-1.8.12-1.8,1.15V78c0,.57.08.81.79.81.93,0,1.17-.33,1.17-.81,0-.2-.06-.48-.06-.68,0-.69.56-1,1.3-1,1,0,1.47.36,1.47,1.3,0,.74-.21,1.46-.21,2.21,0,1,.21,2.08.21,3s-.42,1.46-1.45,1.46a1.2,1.2,0,0,1-1.34-1.22c0-.19,0-.53,0-.74,0-.48-.29-.58-1.14-.58s-.79.14-.79.91v1.61c0,1.51.56,1.58,2.48,1.58h1.35c1.79,0,2.53-.38,2.53-1.22,0-.53-.18-1.08-.18-1.61a1.9,1.9,0,0,1,2.16-2,1.88,1.88,0,0,1,2,2.06c0,.89-.21,1.9-.21,2.79,0,.67.21,1.29.21,1.89,0,.77-.53,1.28-1.67,1.28-1.55,0-7-.24-10-.24-1.37,0-3,.24-4.14.24-1.72,0-2.64-.6-2.64-1.83a1.47,1.47,0,0,1,1.37-1.61c.4,0,.77.17,1.16.17s.69-.26.69-1.7v-6.7c0-1-.08-1.77-.63-1.77s-.85.16-1.3.16a1.47,1.47,0,0,1-1.29-1.6,1.75,1.75,0,0,1,1.9-1.83C56.5,72.35,58.37,72.59,59.85,72.59Z"/><path d="M86.22,73.72l0,0v-.24c0-.8.66-1.35,1.64-1.35a1.54,1.54,0,0,1,1.69,1.56c0,.77-.21,1.61-.21,2.4s.21,1.27.21,1.92c0,1.06-1,1.68-2.22,1.68-1.4,0-2-.53-2-1.75v-.53c0-.86-.56-1.94-2.72-1.94C80,75.45,79,77.06,79,80.78c0,3.55,1.16,5.18,3.8,5.18,1.82,0,2.69-.65,2.69-2.4s1-2.06,2-2.06a2.31,2.31,0,0,1,2.48,2.56c0,3.32-3.28,5.31-7.32,5.31-6.46,0-8.68-4.27-8.68-8.59a12,12,0,0,1,.79-4.37c1.06-2.81,3.8-4.39,7-4.39A6,6,0,0,1,86.22,73.72Z"/><path d="M96.81,72.59c.92,0,2.82-.24,3.56-.24s1.35.75,1.35,1.83c0,.93-.43,1.6-.82,1.6-.21,0-.74-.16-1-.16-.39,0-.42,1.27-.42,2.2v.89h5.57V77.56c0-.89,0-1.94-.42-1.94s-.74.16-1,.16c-.45,0-.85-.67-.85-1.6,0-1.08.45-1.83,1.38-1.83,1.5,0,1.71.24,3.51.24,1,0,3.22-.24,3.9-.24a1.66,1.66,0,0,1,1.53,1.83,1.47,1.47,0,0,1-1.26,1.6c-.45,0-1-.16-1.4-.16s-.56,1-.56,1.77V84c0,1.18.16,1.8.56,1.8s.9-.17,1.4-.17c.71,0,1.26.77,1.26,1.64a1.64,1.64,0,0,1-1.47,1.8c-1.27,0-2.62-.24-4-.24s-2.85.24-3.59.24-1.3-.75-1.3-1.83c0-.89.45-1.61.87-1.61s.72.17.93.17.42-.69.42-1.75V82H99.5V84c0,1.06.08,1.75.42,1.75s.61-.17.93-.17.87.68.87,1.61-.45,1.83-1.3,1.83-2.29-.24-3.59-.24-2.69.24-4,.24a1.64,1.64,0,0,1-1.47-1.8,1.48,1.48,0,0,1,1.29-1.64c.45,0,1.06.17,1.35.17s.58-.67.58-1.8v-6.6c0-1.17-.14-1.77-.58-1.77s-.93.16-1.35.16a1.48,1.48,0,0,1-1.29-1.6,1.67,1.67,0,0,1,1.5-1.83C93.64,72.35,95.86,72.59,96.81,72.59Z"/><path d="M131.44,72.59c2.7,0,6.87-.24,7.58-.24.87,0,1.4.27,1.4,1.06s-.13,1.44-.13,2.18.13,1.66.13,2.33A1.94,1.94,0,0,1,138.33,80a1.87,1.87,0,0,1-2-2.13c0-.55.16-1.06.16-1.54s-.53-.84-1.24-.84c-1,0-1.35.51-1.35,1.83v6.64c0,.89.11,1.83.85,1.83.5,0,.95-.17,1.45-.17a1.65,1.65,0,0,1,1.69,1.61c0,1.05-.85,1.85-2.35,1.85-1.24,0-2.59-.24-4.07-.24-1.11,0-3.19.24-4.11.24-1.48,0-2.33-.82-2.33-1.85a1.66,1.66,0,0,1,1.69-1.61c.5,0,1,.17,1.48.17.71,0,.82-.89.82-1.83V77.3c0-1.32-.32-1.83-1.35-1.83-.66,0-1.24.34-1.24.84s.16,1,.16,1.54a1.87,1.87,0,0,1-2,2.13,2,2,0,0,1-2.09-2c0-.74.13-1.56.13-2.35s-.13-1.51-.13-2.18.53-1.06,1.4-1.06C124.55,72.35,128.78,72.59,131.44,72.59Z"/><path d="M147,72.59c1.61,0,8.21-.24,10-.24,1.61,0,2.05.41,2.05,1.25s-.23,1.63-.23,2.38.23,1.46.23,2.16a1.87,1.87,0,0,1-2.05,1.7,1.79,1.79,0,0,1-2-1.92c0-.6.24-1.15.24-1.7s-.32-.75-1.9-.75h-2.35c-1.46,0-1.8.12-1.8,1.15V78c0,.57.08.81.79.81.93,0,1.16-.33,1.16-.81,0-.2-.05-.48-.05-.68,0-.69.56-1,1.3-1,.95,0,1.47.36,1.47,1.3,0,.74-.21,1.46-.21,2.21,0,1,.21,2.08.21,3s-.42,1.46-1.45,1.46A1.2,1.2,0,0,1,151,83.08c0-.19.05-.53.05-.74,0-.48-.29-.58-1.14-.58s-.79.14-.79.91v1.61c0,1.51.56,1.58,2.48,1.58H153c1.79,0,2.53-.38,2.53-1.22,0-.53-.18-1.08-.18-1.61a1.9,1.9,0,0,1,2.16-2,1.88,1.88,0,0,1,2,2.06c0,.89-.22,1.9-.22,2.79,0,.67.22,1.29.22,1.89,0,.77-.53,1.28-1.67,1.28-1.55,0-7-.24-9.95-.24-1.37,0-3,.24-4.14.24-1.72,0-2.64-.6-2.64-1.83a1.47,1.47,0,0,1,1.37-1.61c.4,0,.77.17,1.16.17s.69-.26.69-1.7v-6.7c0-1-.08-1.77-.64-1.77s-.84.16-1.29.16a1.47,1.47,0,0,1-1.29-1.6,1.75,1.75,0,0,1,1.9-1.83C143.61,72.35,145.49,72.59,147,72.59Z"/><path d="M165.21,72.59c.63,0,2.24-.24,2.9-.24a1.64,1.64,0,0,1,1.77,1.73c0,.48,0,.79-.53,1s-.68.36-.68.63a1.41,1.41,0,0,0,.21.64l1.48,2.48c1.9-2.74,2-2.79,2-3.1s-1.19-.38-1.19-1.56c0-.94.45-1.85,1.22-1.85.92,0,2.08.24,3.14.24.82,0,2.17-.24,2.88-.24a1.73,1.73,0,0,1,1.87,1.83,1.51,1.51,0,0,1-1.37,1.6c-.21,0-.5,0-.74,0-.53,0-1,.52-1.32.93l-3,3.79,2.88,4.08c.56.77.87,1.16,1.32,1.16s.61-.1.9-.1a1.47,1.47,0,0,1,1.37,1.61,1.78,1.78,0,0,1-1.9,1.85c-.74,0-2-.24-2.85-.24-1.06,0-2.16.24-3.19.24a1.52,1.52,0,0,1-1.51-1.66,1.29,1.29,0,0,1,1-1.34c.31-.15.42-.27.42-.48a.52.52,0,0,0-.11-.32l-1.76-2.78-1.64,2.3a2.07,2.07,0,0,0-.48.89c0,.29.22.34.72.6s.6.55.6,1.15a1.48,1.48,0,0,1-1.66,1.64c-1,0-2.11-.24-2.88-.24-1.05,0-2.19.24-3.16.24a1.68,1.68,0,0,1-1.69-1.83,1.52,1.52,0,0,1,1.37-1.61c.32,0,.63.1.92.1s.56,0,1.43-1.15l2.93-3.75-2.88-4c-.55-.74-1.05-1.12-1.5-1.12-.29,0-.64,0-1,0a1.48,1.48,0,0,1-1.29-1.6A1.73,1.73,0,0,1,162,72.35C163.07,72.35,164.18,72.59,165.21,72.59Z"/><path d="M189.52,72.59c2.7,0,6.87-.24,7.58-.24.87,0,1.4.27,1.4,1.06s-.13,1.44-.13,2.18.13,1.66.13,2.33A1.94,1.94,0,0,1,196.41,80a1.87,1.87,0,0,1-2-2.13c0-.55.16-1.06.16-1.54s-.53-.84-1.24-.84c-1,0-1.35.51-1.35,1.83v6.64c0,.89.11,1.83.85,1.83.5,0,.95-.17,1.45-.17a1.65,1.65,0,0,1,1.69,1.61c0,1.05-.85,1.85-2.35,1.85-1.24,0-2.59-.24-4.07-.24-1.1,0-3.19.24-4.11.24-1.48,0-2.33-.82-2.33-1.85a1.65,1.65,0,0,1,1.69-1.61c.5,0,.95.17,1.48.17.71,0,.82-.89.82-1.83V77.3c0-1.32-.32-1.83-1.35-1.83-.66,0-1.24.34-1.24.84s.16,1,.16,1.54a1.87,1.87,0,0,1-2,2.13,2,2,0,0,1-2.09-2c0-.74.13-1.56.13-2.35s-.13-1.51-.13-2.18.53-1.06,1.4-1.06C182.63,72.35,186.86,72.59,189.52,72.59Z"/><path d="M214.31,72.59c1.35,0,4.62-.24,5.84-.24,3.3,0,5.59,1.71,5.59,4.23,0,2.11-1.24,3.28-3.88,3.69v0c2.62.31,3.59,1.34,3.59,3.38v1c0,.72.05,1,.58,1,.29,0,.53-.08.82-.08.66,0,1.22.82,1.22,1.61a1.74,1.74,0,0,1-1.85,1.83c-.43,0-1.16-.24-1.61-.24s-1.35.24-1.8.24c-1.56,0-2.29-.94-2.29-2.93,0-.46,0-1,0-1.63,0-1.56-.77-2.24-3.17-2.24-.92,0-1.21.24-1.21.94v1.1c0,.82.15,1.49.66,1.49.29,0,.84-.17,1.18-.17a1.53,1.53,0,0,1,1.38,1.61,1.75,1.75,0,0,1-1.88,1.83c-.66,0-2.45-.24-3.59-.24-1.34,0-2.69.24-4,.24a1.74,1.74,0,0,1-1.88-1.83,1.49,1.49,0,0,1,1.38-1.61c.34,0,.95.17,1.18.17.56,0,.66-.53.66-1.75V77.37c0-1.32-.13-1.75-.68-1.75s-.77.16-1.16.16a1.51,1.51,0,0,1-1.38-1.6,1.75,1.75,0,0,1,1.9-1.83C210.56,72.35,213.12,72.59,214.31,72.59Zm3.91,3c-1.69,0-2,.21-2,1V78.3c0,.68.23.89,1.08.89,2.19,0,3.4-.67,3.4-1.92C220.67,76.24,219.78,75.62,218.22,75.62Z"/><path d="M234.61,72.59c1.61,0,8.21-.24,10-.24,1.61,0,2.06.41,2.06,1.25s-.24,1.63-.24,2.38.24,1.46.24,2.16a1.88,1.88,0,0,1-2.06,1.7,1.79,1.79,0,0,1-2-1.92c0-.6.23-1.15.23-1.7s-.31-.75-1.9-.75h-2.35c-1.45,0-1.79.12-1.79,1.15V78c0,.57.08.81.79.81.92,0,1.16-.33,1.16-.81,0-.2,0-.48,0-.68,0-.69.55-1,1.29-1,.95,0,1.48.36,1.48,1.3,0,.74-.21,1.46-.21,2.21,0,1,.21,2.08.21,3S241,84.3,240,84.3a1.21,1.21,0,0,1-1.35-1.22c0-.19.06-.53.06-.74,0-.48-.29-.58-1.14-.58s-.79.14-.79.91v1.61c0,1.51.55,1.58,2.48,1.58h1.35c1.79,0,2.53-.38,2.53-1.22,0-.53-.18-1.08-.18-1.61a1.9,1.9,0,0,1,2.16-2,1.87,1.87,0,0,1,1.95,2.06c0,.89-.21,1.9-.21,2.79,0,.67.21,1.29.21,1.89,0,.77-.52,1.28-1.66,1.28-1.56,0-7-.24-9.95-.24-1.37,0-3,.24-4.15.24-1.71,0-2.64-.6-2.64-1.83a1.48,1.48,0,0,1,1.38-1.61c.39,0,.76.17,1.16.17s.68-.26.68-1.7v-6.7c0-1-.07-1.77-.63-1.77s-.84.16-1.29.16a1.48,1.48,0,0,1-1.3-1.6,1.75,1.75,0,0,1,1.91-1.83C231.26,72.35,233.14,72.59,234.61,72.59Z"/><path d="M260.12,72.33c1.79,0,2.37.43,2.69,1.37l3.32,10.12c.32.94.53,1.85,1.17,1.85.23,0,.55,0,.76,0,.74,0,1.29.6,1.29,1.73a1.68,1.68,0,0,1-1.82,1.71c-.84,0-2.16-.24-3.11-.24-1.16,0-2.32.24-3.38.24a1.64,1.64,0,0,1-1.82-1.59,1.38,1.38,0,0,1,1.37-1.58c1,0,1-.19,1-.51a6.53,6.53,0,0,0-.16-.74c-.21-.74-.29-.82-.92-.82h-3.91c-.87,0-1,1.3-1,1.56s.19.46.53.46c1.45,0,1.74.7,1.74,1.63a1.62,1.62,0,0,1-1.79,1.59c-.85,0-2.17-.24-3.12-.24-1.13,0-2.27.24-3.4.24a1.71,1.71,0,0,1-1.8-1.71c0-1,.56-1.73,1.29-1.73.3,0,.59,0,.88,0,.58,0,.87-.48,1.16-1.17,1.21-3.12,2.51-6.24,3.75-9.39a5.13,5.13,0,0,1,1.34-2.35,4.79,4.79,0,0,1,2.48-.43Zm.1,8a4.49,4.49,0,0,0-.13-.62L259,75.28H259l-1.4,4.44a6.69,6.69,0,0,0-.21.65c0,.21.11.33,1.38.33C260.22,80.7,260.22,80.58,260.22,80.34Z"/><path d="M274.79,72.59c1.46,0,4.15-.24,4.89-.24a7.43,7.43,0,0,1,6.1,2.52,9,9,0,0,1,2.08,5.83,9.44,9.44,0,0,1-2,5.79,7.43,7.43,0,0,1-6.05,2.57c-1.45,0-3.67-.24-4.86-.24s-2.72.24-3.59.24a1.78,1.78,0,0,1-2-1.83,1.48,1.48,0,0,1,1.37-1.61c.4,0,.77.17,1.16.17.61,0,.69-.69.69-1.8v-6.6c0-1-.05-1.77-.69-1.77-.39,0-.76.16-1.16.16a1.51,1.51,0,0,1-1.37-1.6,1.74,1.74,0,0,1,1.88-1.83C271.94,72.35,273.9,72.59,274.79,72.59ZM277.43,85c0,.74.59.91,1.43.91,2.14,0,4-1.89,4-5.35,0-3-1.8-5.06-4-5.06-1.05,0-1.4.12-1.4,1.48Z"/><path d="M294.8,72.59c1.62,0,8.21-.24,10-.24,1.61,0,2.06.41,2.06,1.25s-.24,1.63-.24,2.38.24,1.46.24,2.16a1.87,1.87,0,0,1-2.06,1.7,1.79,1.79,0,0,1-2-1.92c0-.6.23-1.15.23-1.7s-.31-.75-1.9-.75h-2.35c-1.45,0-1.79.12-1.79,1.15V78c0,.57.08.81.79.81.93,0,1.16-.33,1.16-.81,0-.2-.05-.48-.05-.68,0-.69.55-1,1.29-1,.95,0,1.48.36,1.48,1.3,0,.74-.21,1.46-.21,2.21,0,1,.21,2.08.21,3s-.42,1.46-1.45,1.46a1.21,1.21,0,0,1-1.35-1.22c0-.19.06-.53.06-.74,0-.48-.29-.58-1.14-.58s-.79.14-.79.91v1.61c0,1.51.55,1.58,2.48,1.58h1.35c1.79,0,2.53-.38,2.53-1.22,0-.53-.18-1.08-.18-1.61a1.9,1.9,0,0,1,2.16-2,1.87,1.87,0,0,1,1.95,2.06c0,.89-.21,1.9-.21,2.79,0,.67.21,1.29.21,1.89,0,.77-.52,1.28-1.66,1.28-1.56,0-7-.24-10-.24-1.37,0-3,.24-4.15.24-1.71,0-2.63-.6-2.63-1.83a1.47,1.47,0,0,1,1.37-1.61c.39,0,.76.17,1.16.17s.69-.26.69-1.7v-6.7c0-1-.08-1.77-.64-1.77s-.84.16-1.29.16a1.47,1.47,0,0,1-1.29-1.6,1.75,1.75,0,0,1,1.9-1.83C291.45,72.35,293.33,72.59,294.8,72.59Z"/><path d="M314.63,72.59c1.35,0,4.62-.24,5.84-.24,3.3,0,5.59,1.71,5.59,4.23,0,2.11-1.24,3.28-3.88,3.69v0c2.61.31,3.59,1.34,3.59,3.38v1c0,.72.05,1,.58,1,.29,0,.53-.08.82-.08.66,0,1.21.82,1.21,1.61a1.73,1.73,0,0,1-1.84,1.83c-.43,0-1.16-.24-1.61-.24s-1.35.24-1.8.24c-1.56,0-2.3-.94-2.3-2.93,0-.46.06-1,.06-1.63,0-1.56-.77-2.24-3.17-2.24-.92,0-1.21.24-1.21.94v1.1c0,.82.15,1.49.66,1.49.29,0,.84-.17,1.18-.17a1.53,1.53,0,0,1,1.38,1.61,1.75,1.75,0,0,1-1.88,1.83c-.66,0-2.45-.24-3.59-.24-1.34,0-2.69.24-4,.24a1.74,1.74,0,0,1-1.88-1.83,1.49,1.49,0,0,1,1.37-1.61c.35,0,1,.17,1.19.17.56,0,.66-.53.66-1.75V77.37c0-1.32-.13-1.75-.68-1.75-.4,0-.77.16-1.17.16a1.51,1.51,0,0,1-1.37-1.6,1.75,1.75,0,0,1,1.9-1.83C310.88,72.35,313.44,72.59,314.63,72.59Zm3.91,3c-1.69,0-2,.21-2,1V78.3c0,.68.23.89,1.08.89,2.19,0,3.4-.67,3.4-1.92C321,76.24,320.1,75.62,318.54,75.62Z"/><path d="M154.69,66.11a5.25,5.25,0,0,1-.55-.22,2,2,0,0,1-1-2.21A2,2,0,0,1,155,62.12c2,0,4,0,6,0h.42V59c-1-.22-2.06-.39-3.06-.67A21.29,21.29,0,0,1,146,49.23a21.44,21.44,0,0,1-3.58-12c0-.43,0-.86,0-1.28a2,2,0,0,1,2-1.93,2,2,0,0,1,2,1.92c.05,1.21,0,2.43.19,3.63a17.2,17.2,0,0,0,3.24,8,17.2,17.2,0,0,0,9.43,6.77,16.42,16.42,0,0,0,15.87-3.65,17.84,17.84,0,0,0,6-10.37,21.66,21.66,0,0,0,.3-4.33,2,2,0,0,1,4-.17,22.07,22.07,0,0,1-13.81,21.74A20.25,20.25,0,0,1,165.69,59c-.15,0-.26,0-.26.21v2.85l.4,0H172a2,2,0,0,1,1.94,1.24A2,2,0,0,1,172.73,66l-.3.12Z"/><path d="M151.41,25.54V12.72a12.37,12.37,0,0,1,4-9.35A12.15,12.15,0,0,1,162.83.05a12.53,12.53,0,0,1,13,8.61,13.05,13.05,0,0,1,.61,4q0,12.87,0,25.74a12.51,12.51,0,0,1-24.71,2.92,15.15,15.15,0,0,1-.31-3C151.39,34.06,151.41,29.8,151.41,25.54Zm4,0c0,4.27,0,8.55,0,12.82a12.63,12.63,0,0,0,.14,1.74,8.5,8.5,0,0,0,16.86-1.46c0-8.73,0-17.46,0-26.2a7.42,7.42,0,0,0-.06-.94,8.5,8.5,0,0,0-16.94,1.09C155.42,16.9,155.43,21.22,155.43,25.53Z"/><path d="M157.43,15.44c0-1.31,0-2.61,0-3.92a4.27,4.27,0,0,1,1.37-3.38,4.83,4.83,0,0,1,3-1.12c.43,0,.86,0,1.28,0a1,1,0,0,1,1,1,1,1,0,0,1-.94,1c-.57,0-1.15,0-1.71.11a2.23,2.23,0,0,0-2,2.41v8.33a1.77,1.77,0,0,1-.08.56,1,1,0,0,1-1.89-.21,3.17,3.17,0,0,1,0-.44C157.42,18.31,157.42,16.87,157.43,15.44Z"/><path d="M159.42,23.55v.53a1,1,0,0,1-1,1,1,1,0,0,1-1-.87,7,7,0,0,1,0-1.21,1,1,0,0,1,1-.9,1,1,0,0,1,.95,1Z"/></g></g></svg>